<svg width="30" height="34" fill="none" xmlns="http://www.w3.org/2000/svg"><path d="M11.64 13.433v-1.31c-.456-.055-.911-.091-1.385-.091-5.647 0-10.256 4.587-10.256 10.25 0 3.459 1.73 6.536 4.372 8.393a10.177 10.177 0 0 1-2.75-6.973c.018-5.59 4.48-10.141 10.018-10.269Z" fill="#00FAF0"/><path d="M11.877 28.345a4.675 4.675 0 0 0 4.663-4.497V1.545h4.08a7.226 7.226 0 0 1-.127-1.42h-5.574v22.303a4.675 4.675 0 0 1-4.664 4.497c-.783 0-1.53-.2-2.167-.547a4.644 4.644 0 0 0 3.789 1.967ZM28.251 9.119V7.88a7.683 7.683 0 0 1-4.226-1.257 7.916 7.916 0 0 0 4.226 2.495Z" fill="#00FAF0"/><path d="M24.045 6.626a7.721 7.721 0 0 1-1.913-5.08h-1.494a7.836 7.836 0 0 0 3.407 5.08ZM10.255 17.585a4.679 4.679 0 0 0-4.682 4.679c0 1.802 1.02 3.35 2.514 4.133a4.707 4.707 0 0 1-.892-2.731 4.679 4.679 0 0 1 4.681-4.68c.474 0 .948.073 1.385.219v-5.68c-.456-.055-.911-.091-1.385-.091h-.236v4.37a4.323 4.323 0 0 0-1.385-.22Z" fill="#FE2C55"/><path d="M28.252 9.119v4.333c-2.896 0-5.556-.929-7.742-2.494v11.306c0 5.644-4.59 10.25-10.255 10.25-2.186 0-4.208-.692-5.866-1.857 1.876 2.003 4.536 3.277 7.505 3.277 5.647 0 10.256-4.588 10.256-10.25V12.378a13.269 13.269 0 0 0 7.742 2.494V9.301a9.616 9.616 0 0 1-1.64-.182Z" fill="#FE2C55"/><path d="M20.51 22.264V10.958a13.268 13.268 0 0 0 7.741 2.494V9.12a7.85 7.85 0 0 1-4.226-2.494 7.66 7.66 0 0 1-3.388-5.08h-4.08v22.303a4.675 4.675 0 0 1-4.664 4.497 4.625 4.625 0 0 1-3.789-1.948 4.678 4.678 0 0 1-2.514-4.133 4.679 4.679 0 0 1 4.682-4.679c.473 0 .947.073 1.384.218v-4.37c-5.538.128-10 4.68-10 10.233 0 2.694 1.038 5.152 2.75 6.973a10.211 10.211 0 0 0 5.866 1.857c5.629.018 10.237-4.588 10.237-10.232Z" fill="#fff"/></svg>